<svg width="153" height="40" viewBox="0 0 153 40" fill="none" xmlns="http://www.w3.org/2000/svg">
<path d="M8.41905 5.65714C8.93333 5.65714 9.37143 5.23809 9.37143 4.72381C9.37143 4.20952 8.95238 3.79048 8.41905 3.79048C7.90476 3.79048 7.46667 4.20952 7.46667 4.72381C7.46667 5.23809 7.88572 5.65714 8.41905 5.65714ZM5.29524 9.42857C5.25714 9.46667 5.2381 9.50476 5.2 9.5619C4.93333 10.019 5.08571 10.5905 5.54286 10.8571C6 11.1238 6.57143 10.9714 6.8381 10.5143C7.10476 10.0571 6.95238 9.48571 6.49524 9.21905C6.4 9.16191 6.30476 9.12381 6.19048 9.10476C6.32381 8.93333 6.41905 8.74286 6.41905 8.51429C6.41905 8 6 7.58095 5.46667 7.58095C4.93333 7.58095 4.51429 8 4.51429 8.51429C4.51429 8.97143 4.85714 9.35238 5.29524 9.42857ZM2.62857 11.4476C2.62857 11.9619 3.04762 12.381 3.5619 12.381C4.07619 12.381 4.49524 11.9619 4.49524 11.4476C4.49524 11.2381 4.41905 11.0476 4.30476 10.8952C4.53333 10.4381 4.38095 9.88571 3.94286 9.6381C3.48571 9.37143 2.91429 9.52381 2.64762 9.98095C2.45714 10.3238 2.49524 10.7238 2.70476 11.0286C2.68571 11.1619 2.62857 11.2952 2.62857 11.4476ZM20 38.0952C19.4857 38.0952 19.0476 38.5143 19.0476 39.0476C19.0476 39.5619 19.4667 40 20 40C20.5143 40 20.9524 39.581 20.9524 39.0476C20.9524 38.5143 20.5143 38.0952 20 38.0952ZM25.181 0.666667C24.6667 0.533333 24.1524 0.838095 24.019 1.33333C23.8857 1.84762 24.1905 2.3619 24.6857 2.49524C25.2 2.62857 25.7143 2.32381 25.8476 1.82857C25.981 1.31429 25.6762 0.8 25.181 0.666667ZM15.3143 37.4667C15.2 37.4286 15.0857 37.4286 14.9714 37.4476C14.9905 37.1048 14.819 36.7619 14.4952 36.5905C14.0381 36.3238 13.4667 36.4762 13.2 36.9333C12.9333 37.3905 13.0857 37.9619 13.5429 38.2286C13.7143 38.3238 13.9238 38.3619 14.1143 38.3429C14.0952 38.781 14.381 39.181 14.819 39.2952C15.3333 39.4286 15.8476 39.1238 15.981 38.6286C16.1143 38.1333 15.8286 37.6 15.3143 37.4667ZM30 2.66667C29.5429 2.4 28.9714 2.55238 28.7048 3.00952C28.4381 3.46667 28.5905 4.03809 29.0476 4.30476C29.5048 4.57143 30.0762 4.41905 30.3429 3.9619C30.6095 3.50476 30.4571 2.91429 30 2.66667ZM10.9524 35.6571C10.4952 35.3905 9.92381 35.5429 9.65714 36C9.39048 36.4571 9.54286 37.0286 10 37.2952C10.4571 37.5619 11.0286 37.4095 11.2952 36.9524C11.5619 36.4952 11.4095 35.9238 10.9524 35.6571ZM32.8 5.84762C32.4381 6.20952 32.4381 6.81905 32.8 7.18095C33.1619 7.54286 33.7714 7.54286 34.1333 7.18095C34.4952 6.81905 34.4952 6.20952 34.1333 5.84762C33.7714 5.46667 33.181 5.46667 32.8 5.84762ZM36.0191 9.6381C35.5619 9.90476 35.4095 10.4762 35.6762 10.9333C35.9429 11.3905 36.5143 11.5429 36.9714 11.2762C37.4286 11.0095 37.581 10.4381 37.3143 9.98095C37.0667 9.52381 36.4762 9.37143 36.0191 9.6381ZM38.6476 15.9619C39.1619 15.8286 39.4476 15.3143 39.3143 14.8C39.181 14.2857 38.6667 14 38.1524 14.1333C37.6381 14.2667 37.3524 14.781 37.4857 15.2952C37.619 15.8095 38.1524 16.0952 38.6476 15.9619ZM1.92381 24.019C2.20952 23.981 2.47619 23.8286 2.62857 23.5619C2.89524 23.1048 2.74286 22.5333 2.28571 22.2667C1.82857 22 1.25714 22.1524 0.990476 22.6095C0.723809 23.0667 0.87619 23.6381 1.33333 23.9048C1.39048 23.9238 1.42857 23.9619 1.48571 23.981C1.44762 23.981 1.39048 24 1.35238 24C0.838095 24.1333 0.552381 24.6476 0.685714 25.1619C0.819048 25.6762 1.33333 25.9619 1.84762 25.8286C2.3619 25.6952 2.64762 25.181 2.51429 24.6667C2.4381 24.3619 2.20952 24.1333 1.92381 24.019ZM39.0476 19.0286C38.5333 19.0286 38.0952 19.4476 38.0952 19.981C38.0952 20.4952 38.5143 20.9333 39.0476 20.9333C39.5619 20.9333 40 20.5143 40 19.981C40 19.4667 39.581 19.0286 39.0476 19.0286ZM1.88571 19.981C1.88571 19.8476 1.86667 19.7143 1.80952 19.6C2.13333 19.6 2.45714 19.4286 2.62857 19.1238C2.89524 18.6667 2.74286 18.0952 2.28571 17.8286C1.82857 17.5619 1.25714 17.7143 0.990476 18.1714C0.838095 18.4571 0.838095 18.7619 0.952381 19.0286C0.438095 19.0286 0 19.4476 0 19.981C0 20.4952 0.419048 20.9333 0.952381 20.9333C1.46667 20.9333 1.88571 20.4952 1.88571 19.981ZM38.6476 24C38.1333 23.8667 37.619 24.1714 37.4857 24.6667C37.3524 25.181 37.6571 25.6952 38.1524 25.8286C38.6667 25.9619 39.181 25.6571 39.3143 25.1619C39.4476 24.6476 39.1619 24.1333 38.6476 24ZM1.35238 15.9619C1.86667 16.0952 2.38095 15.7905 2.51429 15.2952C2.55238 15.181 2.55238 15.0857 2.53333 14.9714C2.89524 15.0095 3.27619 14.8381 3.46667 14.5143C3.73333 14.0571 3.58095 13.4857 3.12381 13.219C2.66667 12.9524 2.09524 13.1048 1.82857 13.5619C1.73333 13.7333 1.69524 13.9238 1.71429 14.1143C1.25714 14.0571 0.8 14.3429 0.685714 14.8C0.552381 15.3143 0.838095 15.8286 1.35238 15.9619ZM36.9714 28.6857C36.5143 28.419 35.9429 28.5714 35.6762 29.0286C35.4095 29.4857 35.5619 30.0571 36.0191 30.3238C36.4762 30.5905 37.0476 30.4381 37.3143 29.981C37.581 29.5238 37.4286 28.9524 36.9714 28.6857ZM2.89524 16.0952C2.62857 16.5524 2.78095 17.1238 3.2381 17.3905C3.69524 17.6571 4.26667 17.5048 4.53333 17.0476C4.8 16.5905 4.64762 16.019 4.19048 15.7524C3.73333 15.4857 3.14286 15.6381 2.89524 16.0952ZM3.2381 27.2762C3.69524 27.5429 4.26667 27.3905 4.53333 26.9333C4.8 26.4762 4.64762 25.9048 4.19048 25.6381C3.73333 25.3714 3.1619 25.5238 2.89524 25.981C2.62857 26.4381 2.78095 27.0095 3.2381 27.2762ZM6.41905 30.9333C6.68571 30.4762 6.53333 29.9048 6.07619 29.6381C6.01905 29.6 5.9619 29.581 5.90476 29.5619C5.9619 29.181 5.79048 28.781 5.44762 28.5905C5.00952 28.3429 4.47619 28.4762 4.19048 28.8762C3.90476 28.5524 3.40952 28.4762 3.02857 28.7048C2.57143 28.9714 2.41905 29.5429 2.68571 30C2.95238 30.4571 3.52381 30.6095 3.98095 30.3429C4.11429 30.2667 4.20952 30.1714 4.28571 30.0571C4.34286 30.1333 4.41905 30.1905 4.51429 30.2476C4.57143 30.2857 4.62857 30.3048 4.68571 30.3238C4.62857 30.7048 4.8 31.1048 5.14286 31.2952C5.58095 31.5429 6.17143 31.3905 6.41905 30.9333ZM8.32381 32.819C8.59048 32.3619 8.4381 31.7905 7.98095 31.5238C7.52381 31.2571 6.95238 31.4095 6.68571 31.8667C6.57143 32.0571 6.53333 32.2857 6.57143 32.4952C6.32381 32.4762 6.05714 32.5714 5.86667 32.7619C5.50476 33.1238 5.50476 33.7333 5.86667 34.0952C6.22857 34.4571 6.8381 34.4571 7.2 34.0952C7.42857 33.8667 7.50476 33.5619 7.46667 33.2571C7.80952 33.3143 8.13333 33.1429 8.32381 32.819ZM9.79048 35.7714C10.0571 35.3143 9.90476 34.7429 9.44762 34.4762C8.99048 34.2095 8.41905 34.3619 8.15238 34.819C7.88571 35.2762 8.0381 35.8476 8.49524 36.1143C8.95238 36.381 9.52381 36.2286 9.79048 35.7714ZM12.819 34.4762C12.3619 34.2095 11.7905 34.3619 11.5238 34.819C11.2571 35.2762 11.4095 35.8476 11.8667 36.1143C12.3238 36.381 12.8952 36.2286 13.1619 35.7714C13.4286 35.3143 13.2762 34.7429 12.819 34.4762ZM11.3333 31.5238C10.8762 31.2571 10.3048 31.4095 10.0381 31.8667C9.77143 32.3238 9.92381 32.8952 10.381 33.1619C10.8381 33.4286 11.4095 33.2762 11.6762 32.819C11.9429 32.3619 11.7905 31.7905 11.3333 31.5238ZM12.9143 29.8095C13.3714 30.0762 13.9429 29.9238 14.2095 29.4667C14.4762 29.0095 14.3238 28.4381 13.8667 28.1714C13.4095 27.9048 12.8381 28.0571 12.5714 28.5143C12.3048 28.9524 12.4762 29.5429 12.9143 29.8095ZM11.3333 25.6381C10.8762 25.3714 10.3048 25.5238 10.0381 25.981C9.77143 26.4381 9.92381 27.0095 10.381 27.2762C10.8381 27.5429 11.4095 27.3905 11.6762 26.9333C11.9429 26.4762 11.7905 25.9048 11.3333 25.6381ZM17.0286 25.0095C16.5714 24.7429 16 24.8952 15.7333 25.3524C15.4667 25.8095 15.619 26.381 16.0762 26.6476C16.5333 26.9143 17.1048 26.7619 17.3714 26.3048C17.6381 25.8476 17.4857 25.2571 17.0286 25.0095ZM18.7048 21.0095C18.2476 20.7429 17.6762 20.8952 17.4095 21.3524C17.1429 21.8095 17.2952 22.381 17.7524 22.6476C18.2095 22.9143 18.781 22.7619 19.0476 22.3048C19.3143 21.8476 19.1619 21.2571 18.7048 21.0095ZM16.5714 12.3048C16.3048 12.7619 16.4571 13.3333 16.9143 13.6C17.3714 13.8667 17.9429 13.7143 18.2095 13.2571C18.4762 12.8 18.3238 12.2286 17.8667 11.9619C17.4095 11.6952 16.8381 11.8476 16.5714 12.3048ZM15.5238 8.51429C15.2571 8.97143 15.4095 9.54286 15.8667 9.80952C16.3238 10.0762 16.8952 9.92381 17.1619 9.46667C17.4286 9.00952 17.2762 8.4381 16.819 8.17143C16.3619 7.90476 15.7905 8.05714 15.5238 8.51429ZM19.2762 6.72381C19.5429 6.26667 19.3905 5.69524 18.9333 5.42857C18.4762 5.1619 17.9048 5.31429 17.6381 5.77143C17.3714 6.22857 17.5238 6.8 17.981 7.06667C18.419 7.33333 19.0095 7.16191 19.2762 6.72381ZM21.4476 1.00952C21.2952 0.914286 21.1238 0.876191 20.9524 0.895238C20.9333 0.4 20.5143 0 20 0C19.4857 0 19.0476 0.419048 19.0476 0.952381C19.0476 1.46667 19.4667 1.90476 20 1.90476C20.019 1.90476 20.019 1.90476 20.0381 1.90476C20.0571 2.20952 20.2286 2.51429 20.5143 2.68571C20.9714 2.95238 21.5429 2.8 21.8095 2.34286C22.0571 1.84762 21.9048 1.25714 21.4476 1.00952ZM13.7714 34.2286C14.2286 34.4952 14.8 34.3429 15.0667 33.8857C15.3333 33.4286 15.181 32.8571 14.7238 32.5905C14.2667 32.3238 13.6952 32.4762 13.4286 32.9333C13.1619 33.3905 13.3143 33.9619 13.7714 34.2286ZM13.8667 18.4762C13.4095 18.2095 12.8381 18.3619 12.5714 18.819C12.3048 19.2762 12.4571 19.8476 12.9143 20.1143C13.3714 20.381 13.9429 20.2286 14.2095 19.7714C14.4762 19.3143 14.3238 18.7429 13.8667 18.4762ZM8.81905 23.7333C8.36191 23.4667 7.79048 23.619 7.52381 24.0762C7.25714 24.5333 7.40952 25.1048 7.86667 25.3714C8.32381 25.6381 8.89524 25.4857 9.1619 25.0286C9.42857 24.5714 9.27619 24 8.81905 23.7333ZM8.32381 19.5619C8.59048 19.1048 8.4381 18.5333 7.98095 18.2667C7.73333 18.1143 7.44762 18.1143 7.18095 18.1905C7.1619 17.8857 6.99048 17.581 6.70476 17.4095C6.24762 17.1429 5.67619 17.2952 5.40952 17.7524C5.14286 18.2095 5.29524 18.781 5.75238 19.0476C6 19.2 6.28571 19.2 6.55238 19.1238C6.57143 19.4286 6.74286 19.7333 7.02857 19.9048C7.48571 20.1714 8.05714 20.0191 8.32381 19.5619ZM11.5238 7.86667C11.2571 8.32381 11.4095 8.89524 11.8667 9.16191C12.3238 9.42857 12.8952 9.27619 13.1619 8.81905C13.4286 8.36191 13.2762 7.79048 12.819 7.52381C12.3619 7.27619 11.7905 7.42857 11.5238 7.86667ZM17.5619 3.48571C18.019 3.75238 18.5905 3.6 18.8571 3.14286C19.1238 2.68571 18.9714 2.11429 18.5143 1.84762C18.0571 1.58095 17.4857 1.73333 17.219 2.19048C16.9524 2.64762 17.1048 3.21905 17.5619 3.48571ZM15.0667 5.86667C15.3333 5.40952 15.181 4.8381 14.7238 4.57143C14.2667 4.30476 13.6952 4.45714 13.4286 4.91429C13.1619 5.37143 13.3143 5.94286 13.7714 6.20952C14.2095 6.47619 14.8 6.32381 15.0667 5.86667ZM13.5619 3.48571C14.019 3.75238 14.5905 3.6 14.8571 3.14286C14.9714 2.95238 15.0095 2.72381 14.9714 2.51429C15.0857 2.53333 15.2 2.51429 15.3333 2.49524C15.8476 2.3619 16.1333 1.84762 16 1.33333C15.8667 0.819048 15.3524 0.533333 14.8381 0.666667C14.3619 0.8 14.0762 1.25714 14.1524 1.73333C13.7905 1.69524 13.4095 1.86667 13.219 2.20952C12.9524 2.64762 13.1048 3.21905 13.5619 3.48571ZM8.15238 11.4476C7.9619 11.7714 8 12.1524 8.19048 12.4571C8.17143 12.4762 8.17143 12.4952 8.15238 12.5143C7.88571 12.9714 8.0381 13.5429 8.49524 13.8095C8.95238 14.0762 9.52381 13.9238 9.79048 13.4667C9.98095 13.1429 9.94286 12.7619 9.75238 12.4571C9.77143 12.4381 9.77143 12.419 9.79048 12.4C10.0571 11.9429 9.90476 11.3714 9.44762 11.1048C8.99048 10.8381 8.41905 11.0095 8.15238 11.4476ZM9.5619 17.1619C10.019 17.4286 10.5905 17.2762 10.8571 16.819C11.1238 16.3619 10.9714 15.7905 10.5143 15.5238C10.0571 15.2571 9.48571 15.4095 9.21905 15.8667C8.95238 16.3238 9.10476 16.9143 9.5619 17.1619ZM10 21.8667C10.1524 21.619 10.1524 21.3143 10.0571 21.0667C10.4381 21.1429 10.8381 20.9714 11.0476 20.6095C11.3143 20.1524 11.1619 19.581 10.7048 19.3143C10.2476 19.0476 9.67619 19.2 9.40952 19.6571C9.25714 19.9048 9.25714 20.2095 9.35238 20.4571C8.97143 20.381 8.59048 20.5524 8.38095 20.8952C7.98095 20.781 7.54286 20.9524 7.31429 21.3333C7.04762 21.7905 7.2 22.3619 7.65714 22.6286C8.09524 22.8952 8.66667 22.7429 8.93333 22.3048C9.35238 22.419 9.79048 22.2476 10 21.8667ZM13.2 21.981C12.9333 22.4381 13.0857 23.0095 13.5429 23.2762C14 23.5429 14.5714 23.3905 14.8381 22.9333C15.1048 22.4762 14.9524 21.9048 14.4952 21.6381C14.0381 21.3714 13.4667 21.5238 13.2 21.981ZM15.9048 16.819C16.1714 16.3619 16.019 15.7905 15.5619 15.5238C15.1048 15.2571 14.5333 15.4095 14.2667 15.8667C14 16.3238 14.1524 16.8952 14.6095 17.1619C15.0667 17.4286 15.6381 17.2762 15.9048 16.819ZM11.9429 11.8667C11.6762 12.3238 11.8286 12.8952 12.2857 13.1619C12.7429 13.4286 13.3143 13.2762 13.581 12.819C13.8476 12.3619 13.6952 11.7905 13.2381 11.5238C12.781 11.2762 12.2095 11.4286 11.9429 11.8667ZM8.81905 29.219C8.36191 28.9524 7.79048 29.1048 7.52381 29.5619C7.25714 30.019 7.40952 30.5905 7.86667 30.8571C8.32381 31.1238 8.89524 30.9714 9.1619 30.5143C9.42857 30.0571 9.27619 29.4667 8.81905 29.219ZM5.5619 28.3238C6.01905 28.5905 6.59048 28.4381 6.85714 27.981C7.12381 27.5238 6.97143 26.9524 6.51429 26.6857C6.05714 26.419 5.48571 26.5714 5.21905 27.0286C4.95238 27.4857 5.10476 28.0571 5.5619 28.3238ZM5.37143 24.4C5.6381 23.9429 5.48571 23.3714 5.02857 23.1048C4.57143 22.8381 4 22.9905 3.73333 23.4476C3.46667 23.9048 3.61905 24.4762 4.07619 24.7429C4.53333 25.0095 5.10476 24.8571 5.37143 24.4ZM3.02857 21.8095C3.48571 22.0762 4.05714 21.9238 4.32381 21.4667C4.59048 21.0095 4.4381 20.4381 3.98095 20.1714C3.52381 19.9048 2.95238 20.0571 2.68571 20.5143C2.41905 20.9524 2.57143 21.5429 3.02857 21.8095ZM4.70476 14.8571C5.1619 15.1238 5.73333 14.9714 6 14.5143C6.26667 14.0571 6.11429 13.4857 5.65714 13.219C5.2 12.9524 4.62857 13.1048 4.3619 13.5619C4.09524 14.019 4.26667 14.5905 4.70476 14.8571ZM7.86667 9.37143C8.32381 9.63809 8.89524 9.48571 9.1619 9.02857C9.42857 8.57143 9.27619 8 8.81905 7.73333C8.36191 7.46667 7.79048 7.61905 7.52381 8.07619C7.25714 8.53333 7.40952 9.12381 7.86667 9.37143ZM32.8 32.781C32.4381 33.1429 32.4381 33.7524 32.8 34.1143C33.1619 34.4762 33.7714 34.4762 34.1333 34.1143C34.4952 33.7524 34.4952 33.1429 34.1333 32.781C33.7714 32.419 33.181 32.419 32.8 32.781ZM7.2 7.18095C7.5619 6.81905 7.5619 6.20952 7.2 5.84762C6.8381 5.48571 6.22857 5.48571 5.86667 5.84762C5.50476 6.20952 5.50476 6.81905 5.86667 7.18095C6.22857 7.54286 6.81905 7.54286 7.2 7.18095ZM29.0476 35.6571C28.5905 35.9238 28.4381 36.4952 28.7048 36.9524C28.9714 37.4095 29.5429 37.5619 30 37.2952C30.4571 37.0286 30.6095 36.4571 30.3429 36C30.0762 35.5619 29.5048 35.3905 29.0476 35.6571ZM10.419 4.41905C10.419 4.4381 10.419 4.47619 10.419 4.49524C10.419 5.02857 10.8381 5.44762 11.3714 5.44762C11.9048 5.44762 12.3238 5.02857 12.3238 4.49524C12.3238 3.98095 11.9238 3.58095 11.4286 3.54286C11.4476 3.35238 11.4095 3.1619 11.3143 2.99048C11.0476 2.53333 10.4762 2.38095 10.019 2.64762C9.5619 2.91429 9.40952 3.48571 9.67619 3.94286C9.80952 4.24762 10.1143 4.4 10.419 4.41905ZM24.6857 37.4667C24.1714 37.6 23.8857 38.1143 24.019 38.6286C24.1524 39.1429 24.6667 39.4286 25.181 39.2952C25.6952 39.1619 25.981 38.6476 25.8476 38.1333C25.7143 37.6381 25.2 37.3333 24.6857 37.4667Z" fill="#F8FAFC"/>
<path d="M54.572 26.18C53.768 26.18 53 26.048 52.268 25.784C51.536 25.52 50.906 25.13 50.378 24.614L51.242 23.048C51.806 23.504 52.358 23.84 52.898 24.056C53.45 24.272 53.978 24.38 54.482 24.38C54.95 24.38 55.322 24.296 55.598 24.128C55.886 23.96 56.03 23.708 56.03 23.372C56.03 23.144 55.952 22.97 55.796 22.85C55.64 22.718 55.412 22.604 55.112 22.508C54.824 22.412 54.47 22.304 54.05 22.184C53.354 21.956 52.772 21.734 52.304 21.518C51.836 21.302 51.482 21.032 51.242 20.708C51.014 20.372 50.9 19.946 50.9 19.43C50.9 18.806 51.056 18.272 51.368 17.828C51.692 17.372 52.136 17.018 52.7 16.766C53.276 16.514 53.948 16.388 54.716 16.388C55.388 16.388 56.024 16.496 56.624 16.712C57.224 16.916 57.77 17.252 58.262 17.72L57.29 19.25C56.81 18.878 56.354 18.608 55.922 18.44C55.49 18.26 55.052 18.17 54.608 18.17C54.356 18.17 54.116 18.2 53.888 18.26C53.672 18.32 53.492 18.422 53.348 18.566C53.216 18.698 53.15 18.89 53.15 19.142C53.15 19.37 53.21 19.55 53.33 19.682C53.462 19.802 53.654 19.91 53.906 20.006C54.17 20.102 54.488 20.21 54.86 20.33C55.616 20.546 56.252 20.768 56.768 20.996C57.296 21.224 57.692 21.506 57.956 21.842C58.22 22.166 58.352 22.616 58.352 23.192C58.352 24.128 58.01 24.86 57.326 25.388C56.642 25.916 55.724 26.18 54.572 26.18ZM74.6445 26H72.2325V20.708C72.2325 19.964 72.1005 19.418 71.8365 19.07C71.5845 18.71 71.2305 18.53 70.7745 18.53C70.3065 18.53 69.8565 18.716 69.4245 19.088C69.0045 19.448 68.7045 19.922 68.5245 20.51V26H66.1125V20.708C66.1125 19.952 65.9805 19.4 65.7165 19.052C65.4645 18.704 65.1105 18.53 64.6545 18.53C64.1865 18.53 63.7365 18.71 63.3045 19.07C62.8845 19.43 62.5845 19.904 62.4045 20.492V26H59.9925V16.568H62.1705V18.314C62.5305 17.702 63.0105 17.234 63.6105 16.91C64.2105 16.574 64.9005 16.406 65.6805 16.406C66.4605 16.406 67.0665 16.598 67.4985 16.982C67.9425 17.366 68.2245 17.84 68.3445 18.404C68.7285 17.756 69.2145 17.264 69.8025 16.928C70.4025 16.58 71.0745 16.406 71.8185 16.406C72.4065 16.406 72.8805 16.514 73.2405 16.73C73.6125 16.934 73.9005 17.216 74.1045 17.576C74.3085 17.924 74.4465 18.32 74.5185 18.764C74.6025 19.208 74.6445 19.658 74.6445 20.114V26ZM76.0965 23.21C76.0965 22.598 76.2645 22.064 76.6005 21.608C76.9485 21.14 77.4285 20.78 78.0405 20.528C78.6525 20.276 79.3545 20.15 80.1465 20.15C80.5425 20.15 80.9445 20.18 81.3525 20.24C81.7605 20.3 82.1145 20.396 82.4145 20.528V20.024C82.4145 19.424 82.2345 18.962 81.8745 18.638C81.5265 18.314 81.0045 18.152 80.3085 18.152C79.7925 18.152 79.3005 18.242 78.8325 18.422C78.3645 18.602 77.8725 18.866 77.3565 19.214L76.5825 17.63C77.2065 17.222 77.8425 16.916 78.4905 16.712C79.1505 16.508 79.8405 16.406 80.5605 16.406C81.9045 16.406 82.9485 16.742 83.6925 17.414C84.4485 18.086 84.8265 19.046 84.8265 20.294V23.3C84.8265 23.552 84.8685 23.732 84.9525 23.84C85.0485 23.948 85.1985 24.014 85.4025 24.038V26C85.1865 26.036 84.9885 26.066 84.8085 26.09C84.6405 26.114 84.4965 26.126 84.3765 26.126C83.8965 26.126 83.5305 26.018 83.2785 25.802C83.0385 25.586 82.8885 25.322 82.8285 25.01L82.7745 24.524C82.3665 25.052 81.8565 25.46 81.2445 25.748C80.6325 26.036 80.0085 26.18 79.3725 26.18C78.7485 26.18 78.1845 26.054 77.6805 25.802C77.1885 25.538 76.7985 25.184 76.5105 24.74C76.2345 24.284 76.0965 23.774 76.0965 23.21ZM81.9645 23.696C82.0965 23.552 82.2045 23.408 82.2885 23.264C82.3725 23.12 82.4145 22.988 82.4145 22.868V21.914C82.1265 21.794 81.8145 21.704 81.4785 21.644C81.1425 21.572 80.8245 21.536 80.5245 21.536C79.9005 21.536 79.3845 21.674 78.9765 21.95C78.5805 22.214 78.3825 22.568 78.3825 23.012C78.3825 23.252 78.4485 23.48 78.5805 23.696C78.7125 23.912 78.9045 24.086 79.1565 24.218C79.4085 24.35 79.7085 24.416 80.0565 24.416C80.4165 24.416 80.7705 24.35 81.1185 24.218C81.4665 24.074 81.7485 23.9 81.9645 23.696ZM92.6964 18.656C91.9644 18.656 91.3104 18.8 90.7344 19.088C90.1584 19.364 89.7444 19.766 89.4924 20.294V26H87.0804V16.568H89.2944V18.584C89.6304 17.936 90.0564 17.426 90.5724 17.054C91.0884 16.682 91.6344 16.478 92.2104 16.442C92.3424 16.442 92.4444 16.442 92.5164 16.442C92.5884 16.442 92.6484 16.448 92.6964 16.46V18.656ZM99.6934 25.514C99.4894 25.598 99.2434 25.694 98.9554 25.802C98.6674 25.91 98.3554 25.994 98.0194 26.054C97.6954 26.126 97.3654 26.162 97.0294 26.162C96.5854 26.162 96.1774 26.084 95.8054 25.928C95.4334 25.772 95.1334 25.526 94.9054 25.19C94.6894 24.842 94.5814 24.392 94.5814 23.84V18.422H93.3394V16.568H94.5814V13.508H96.9934V16.568H98.9734V18.422H96.9934V23.03C97.0054 23.354 97.0954 23.588 97.2634 23.732C97.4314 23.876 97.6414 23.948 97.8934 23.948C98.1454 23.948 98.3914 23.906 98.6314 23.822C98.8714 23.738 99.0634 23.666 99.2074 23.606L99.6934 25.514ZM105.2 26.18C104.432 26.18 103.742 26.054 103.13 25.802C102.518 25.538 101.996 25.178 101.564 24.722C101.144 24.266 100.82 23.744 100.592 23.156C100.364 22.568 100.25 21.95 100.25 21.302C100.25 20.642 100.364 20.018 100.592 19.43C100.82 18.842 101.144 18.32 101.564 17.864C101.996 17.408 102.518 17.054 103.13 16.802C103.742 16.538 104.432 16.406 105.2 16.406C105.968 16.406 106.652 16.538 107.252 16.802C107.864 17.054 108.386 17.408 108.818 17.864C109.25 18.32 109.574 18.842 109.79 19.43C110.018 20.018 110.132 20.642 110.132 21.302C110.132 21.95 110.018 22.568 109.79 23.156C109.574 23.744 109.25 24.266 108.818 24.722C108.398 25.178 107.882 25.538 107.27 25.802C106.658 26.054 105.968 26.18 105.2 26.18ZM102.734 21.302C102.734 21.854 102.842 22.346 103.058 22.778C103.274 23.198 103.568 23.528 103.94 23.768C104.312 24.008 104.732 24.128 105.2 24.128C105.656 24.128 106.07 24.008 106.442 23.768C106.814 23.516 107.108 23.18 107.324 22.76C107.552 22.328 107.666 21.836 107.666 21.284C107.666 20.744 107.552 20.258 107.324 19.826C107.108 19.394 106.814 19.058 106.442 18.818C106.07 18.578 105.656 18.458 105.2 18.458C104.732 18.458 104.312 18.584 103.94 18.836C103.568 19.076 103.274 19.412 103.058 19.844C102.842 20.264 102.734 20.75 102.734 21.302ZM126.412 26H124V20.708C124 19.964 123.868 19.418 123.604 19.07C123.352 18.71 122.998 18.53 122.542 18.53C122.074 18.53 121.624 18.716 121.192 19.088C120.772 19.448 120.472 19.922 120.292 20.51V26H117.88V20.708C117.88 19.952 117.748 19.4 117.484 19.052C117.232 18.704 116.878 18.53 116.422 18.53C115.954 18.53 115.504 18.71 115.072 19.07C114.652 19.43 114.352 19.904 114.172 20.492V26H111.76V16.568H113.938V18.314C114.298 17.702 114.778 17.234 115.378 16.91C115.978 16.574 116.668 16.406 117.448 16.406C118.228 16.406 118.834 16.598 119.266 16.982C119.71 17.366 119.992 17.84 120.112 18.404C120.496 17.756 120.982 17.264 121.57 16.928C122.17 16.58 122.842 16.406 123.586 16.406C124.174 16.406 124.648 16.514 125.008 16.73C125.38 16.934 125.668 17.216 125.872 17.576C126.076 17.924 126.214 18.32 126.286 18.764C126.37 19.208 126.412 19.658 126.412 20.114V26ZM128.512 26V16.568H130.924V26H128.512ZM128.512 15.254V12.86H130.924V15.254H128.512ZM137.492 26.18C136.724 26.18 136.034 26.054 135.422 25.802C134.81 25.538 134.288 25.178 133.856 24.722C133.424 24.254 133.088 23.726 132.848 23.138C132.62 22.55 132.506 21.932 132.506 21.284C132.506 20.396 132.704 19.586 133.1 18.854C133.508 18.11 134.084 17.516 134.828 17.072C135.572 16.628 136.454 16.406 137.474 16.406C138.494 16.406 139.37 16.628 140.102 17.072C140.834 17.516 141.38 18.098 141.74 18.818L139.382 19.538C139.178 19.19 138.908 18.926 138.572 18.746C138.236 18.554 137.864 18.458 137.456 18.458C137 18.458 136.58 18.578 136.196 18.818C135.824 19.046 135.53 19.376 135.314 19.808C135.098 20.228 134.99 20.72 134.99 21.284C134.99 21.836 135.098 22.328 135.314 22.76C135.542 23.18 135.842 23.516 136.214 23.768C136.586 24.008 137 24.128 137.456 24.128C137.744 24.128 138.014 24.08 138.266 23.984C138.53 23.888 138.764 23.756 138.968 23.588C139.172 23.42 139.322 23.228 139.418 23.012L141.776 23.732C141.56 24.2 141.242 24.62 140.822 24.992C140.414 25.364 139.928 25.658 139.364 25.874C138.812 26.078 138.188 26.18 137.492 26.18ZM142.612 23.21C142.612 22.598 142.78 22.064 143.116 21.608C143.464 21.14 143.944 20.78 144.556 20.528C145.168 20.276 145.87 20.15 146.662 20.15C147.058 20.15 147.46 20.18 147.868 20.24C148.276 20.3 148.63 20.396 148.93 20.528V20.024C148.93 19.424 148.75 18.962 148.39 18.638C148.042 18.314 147.52 18.152 146.824 18.152C146.308 18.152 145.816 18.242 145.348 18.422C144.88 18.602 144.388 18.866 143.872 19.214L143.098 17.63C143.722 17.222 144.358 16.916 145.006 16.712C145.666 16.508 146.356 16.406 147.076 16.406C148.42 16.406 149.464 16.742 150.208 17.414C150.964 18.086 151.342 19.046 151.342 20.294V23.3C151.342 23.552 151.384 23.732 151.468 23.84C151.564 23.948 151.714 24.014 151.918 24.038V26C151.702 26.036 151.504 26.066 151.324 26.09C151.156 26.114 151.012 26.126 150.892 26.126C150.412 26.126 150.046 26.018 149.794 25.802C149.554 25.586 149.404 25.322 149.344 25.01L149.29 24.524C148.882 25.052 148.372 25.46 147.76 25.748C147.148 26.036 146.524 26.18 145.888 26.18C145.264 26.18 144.7 26.054 144.196 25.802C143.704 25.538 143.314 25.184 143.026 24.74C142.75 24.284 142.612 23.774 142.612 23.21ZM148.48 23.696C148.612 23.552 148.72 23.408 148.804 23.264C148.888 23.12 148.93 22.988 148.93 22.868V21.914C148.642 21.794 148.33 21.704 147.994 21.644C147.658 21.572 147.34 21.536 147.04 21.536C146.416 21.536 145.9 21.674 145.492 21.95C145.096 22.214 144.898 22.568 144.898 23.012C144.898 23.252 144.964 23.48 145.096 23.696C145.228 23.912 145.42 24.086 145.672 24.218C145.924 24.35 146.224 24.416 146.572 24.416C146.932 24.416 147.286 24.35 147.634 24.218C147.982 24.074 148.264 23.9 148.48 23.696Z" fill="#D9D9D9"/>
<path d="M54.572 26.18C53.768 26.18 53 26.048 52.268 25.784C51.536 25.52 50.906 25.13 50.378 24.614L51.242 23.048C51.806 23.504 52.358 23.84 52.898 24.056C53.45 24.272 53.978 24.38 54.482 24.38C54.95 24.38 55.322 24.296 55.598 24.128C55.886 23.96 56.03 23.708 56.03 23.372C56.03 23.144 55.952 22.97 55.796 22.85C55.64 22.718 55.412 22.604 55.112 22.508C54.824 22.412 54.47 22.304 54.05 22.184C53.354 21.956 52.772 21.734 52.304 21.518C51.836 21.302 51.482 21.032 51.242 20.708C51.014 20.372 50.9 19.946 50.9 19.43C50.9 18.806 51.056 18.272 51.368 17.828C51.692 17.372 52.136 17.018 52.7 16.766C53.276 16.514 53.948 16.388 54.716 16.388C55.388 16.388 56.024 16.496 56.624 16.712C57.224 16.916 57.77 17.252 58.262 17.72L57.29 19.25C56.81 18.878 56.354 18.608 55.922 18.44C55.49 18.26 55.052 18.17 54.608 18.17C54.356 18.17 54.116 18.2 53.888 18.26C53.672 18.32 53.492 18.422 53.348 18.566C53.216 18.698 53.15 18.89 53.15 19.142C53.15 19.37 53.21 19.55 53.33 19.682C53.462 19.802 53.654 19.91 53.906 20.006C54.17 20.102 54.488 20.21 54.86 20.33C55.616 20.546 56.252 20.768 56.768 20.996C57.296 21.224 57.692 21.506 57.956 21.842C58.22 22.166 58.352 22.616 58.352 23.192C58.352 24.128 58.01 24.86 57.326 25.388C56.642 25.916 55.724 26.18 54.572 26.18ZM74.6445 26H72.2325V20.708C72.2325 19.964 72.1005 19.418 71.8365 19.07C71.5845 18.71 71.2305 18.53 70.7745 18.53C70.3065 18.53 69.8565 18.716 69.4245 19.088C69.0045 19.448 68.7045 19.922 68.5245 20.51V26H66.1125V20.708C66.1125 19.952 65.9805 19.4 65.7165 19.052C65.4645 18.704 65.1105 18.53 64.6545 18.53C64.1865 18.53 63.7365 18.71 63.3045 19.07C62.8845 19.43 62.5845 19.904 62.4045 20.492V26H59.9925V16.568H62.1705V18.314C62.5305 17.702 63.0105 17.234 63.6105 16.91C64.2105 16.574 64.9005 16.406 65.6805 16.406C66.4605 16.406 67.0665 16.598 67.4985 16.982C67.9425 17.366 68.2245 17.84 68.3445 18.404C68.7285 17.756 69.2145 17.264 69.8025 16.928C70.4025 16.58 71.0745 16.406 71.8185 16.406C72.4065 16.406 72.8805 16.514 73.2405 16.73C73.6125 16.934 73.9005 17.216 74.1045 17.576C74.3085 17.924 74.4465 18.32 74.5185 18.764C74.6025 19.208 74.6445 19.658 74.6445 20.114V26ZM76.0965 23.21C76.0965 22.598 76.2645 22.064 76.6005 21.608C76.9485 21.14 77.4285 20.78 78.0405 20.528C78.6525 20.276 79.3545 20.15 80.1465 20.15C80.5425 20.15 80.9445 20.18 81.3525 20.24C81.7605 20.3 82.1145 20.396 82.4145 20.528V20.024C82.4145 19.424 82.2345 18.962 81.8745 18.638C81.5265 18.314 81.0045 18.152 80.3085 18.152C79.7925 18.152 79.3005 18.242 78.8325 18.422C78.3645 18.602 77.8725 18.866 77.3565 19.214L76.5825 17.63C77.2065 17.222 77.8425 16.916 78.4905 16.712C79.1505 16.508 79.8405 16.406 80.5605 16.406C81.9045 16.406 82.9485 16.742 83.6925 17.414C84.4485 18.086 84.8265 19.046 84.8265 20.294V23.3C84.8265 23.552 84.8685 23.732 84.9525 23.84C85.0485 23.948 85.1985 24.014 85.4025 24.038V26C85.1865 26.036 84.9885 26.066 84.8085 26.09C84.6405 26.114 84.4965 26.126 84.3765 26.126C83.8965 26.126 83.5305 26.018 83.2785 25.802C83.0385 25.586 82.8885 25.322 82.8285 25.01L82.7745 24.524C82.3665 25.052 81.8565 25.46 81.2445 25.748C80.6325 26.036 80.0085 26.18 79.3725 26.18C78.7485 26.18 78.1845 26.054 77.6805 25.802C77.1885 25.538 76.7985 25.184 76.5105 24.74C76.2345 24.284 76.0965 23.774 76.0965 23.21ZM81.9645 23.696C82.0965 23.552 82.2045 23.408 82.2885 23.264C82.3725 23.12 82.4145 22.988 82.4145 22.868V21.914C82.1265 21.794 81.8145 21.704 81.4785 21.644C81.1425 21.572 80.8245 21.536 80.5245 21.536C79.9005 21.536 79.3845 21.674 78.9765 21.95C78.5805 22.214 78.3825 22.568 78.3825 23.012C78.3825 23.252 78.4485 23.48 78.5805 23.696C78.7125 23.912 78.9045 24.086 79.1565 24.218C79.4085 24.35 79.7085 24.416 80.0565 24.416C80.4165 24.416 80.7705 24.35 81.1185 24.218C81.4665 24.074 81.7485 23.9 81.9645 23.696ZM92.6964 18.656C91.9644 18.656 91.3104 18.8 90.7344 19.088C90.1584 19.364 89.7444 19.766 89.4924 20.294V26H87.0804V16.568H89.2944V18.584C89.6304 17.936 90.0564 17.426 90.5724 17.054C91.0884 16.682 91.6344 16.478 92.2104 16.442C92.3424 16.442 92.4444 16.442 92.5164 16.442C92.5884 16.442 92.6484 16.448 92.6964 16.46V18.656ZM99.6934 25.514C99.4894 25.598 99.2434 25.694 98.9554 25.802C98.6674 25.91 98.3554 25.994 98.0194 26.054C97.6954 26.126 97.3654 26.162 97.0294 26.162C96.5854 26.162 96.1774 26.084 95.8054 25.928C95.4334 25.772 95.1334 25.526 94.9054 25.19C94.6894 24.842 94.5814 24.392 94.5814 23.84V18.422H93.3394V16.568H94.5814V13.508H96.9934V16.568H98.9734V18.422H96.9934V23.03C97.0054 23.354 97.0954 23.588 97.2634 23.732C97.4314 23.876 97.6414 23.948 97.8934 23.948C98.1454 23.948 98.3914 23.906 98.6314 23.822C98.8714 23.738 99.0634 23.666 99.2074 23.606L99.6934 25.514ZM105.2 26.18C104.432 26.18 103.742 26.054 103.13 25.802C102.518 25.538 101.996 25.178 101.564 24.722C101.144 24.266 100.82 23.744 100.592 23.156C100.364 22.568 100.25 21.95 100.25 21.302C100.25 20.642 100.364 20.018 100.592 19.43C100.82 18.842 101.144 18.32 101.564 17.864C101.996 17.408 102.518 17.054 103.13 16.802C103.742 16.538 104.432 16.406 105.2 16.406C105.968 16.406 106.652 16.538 107.252 16.802C107.864 17.054 108.386 17.408 108.818 17.864C109.25 18.32 109.574 18.842 109.79 19.43C110.018 20.018 110.132 20.642 110.132 21.302C110.132 21.95 110.018 22.568 109.79 23.156C109.574 23.744 109.25 24.266 108.818 24.722C108.398 25.178 107.882 25.538 107.27 25.802C106.658 26.054 105.968 26.18 105.2 26.18ZM102.734 21.302C102.734 21.854 102.842 22.346 103.058 22.778C103.274 23.198 103.568 23.528 103.94 23.768C104.312 24.008 104.732 24.128 105.2 24.128C105.656 24.128 106.07 24.008 106.442 23.768C106.814 23.516 107.108 23.18 107.324 22.76C107.552 22.328 107.666 21.836 107.666 21.284C107.666 20.744 107.552 20.258 107.324 19.826C107.108 19.394 106.814 19.058 106.442 18.818C106.07 18.578 105.656 18.458 105.2 18.458C104.732 18.458 104.312 18.584 103.94 18.836C103.568 19.076 103.274 19.412 103.058 19.844C102.842 20.264 102.734 20.75 102.734 21.302ZM126.412 26H124V20.708C124 19.964 123.868 19.418 123.604 19.07C123.352 18.71 122.998 18.53 122.542 18.53C122.074 18.53 121.624 18.716 121.192 19.088C120.772 19.448 120.472 19.922 120.292 20.51V26H117.88V20.708C117.88 19.952 117.748 19.4 117.484 19.052C117.232 18.704 116.878 18.53 116.422 18.53C115.954 18.53 115.504 18.71 115.072 19.07C114.652 19.43 114.352 19.904 114.172 20.492V26H111.76V16.568H113.938V18.314C114.298 17.702 114.778 17.234 115.378 16.91C115.978 16.574 116.668 16.406 117.448 16.406C118.228 16.406 118.834 16.598 119.266 16.982C119.71 17.366 119.992 17.84 120.112 18.404C120.496 17.756 120.982 17.264 121.57 16.928C122.17 16.58 122.842 16.406 123.586 16.406C124.174 16.406 124.648 16.514 125.008 16.73C125.38 16.934 125.668 17.216 125.872 17.576C126.076 17.924 126.214 18.32 126.286 18.764C126.37 19.208 126.412 19.658 126.412 20.114V26ZM128.512 26V16.568H130.924V26H128.512ZM128.512 15.254V12.86H130.924V15.254H128.512ZM137.492 26.18C136.724 26.18 136.034 26.054 135.422 25.802C134.81 25.538 134.288 25.178 133.856 24.722C133.424 24.254 133.088 23.726 132.848 23.138C132.62 22.55 132.506 21.932 132.506 21.284C132.506 20.396 132.704 19.586 133.1 18.854C133.508 18.11 134.084 17.516 134.828 17.072C135.572 16.628 136.454 16.406 137.474 16.406C138.494 16.406 139.37 16.628 140.102 17.072C140.834 17.516 141.38 18.098 141.74 18.818L139.382 19.538C139.178 19.19 138.908 18.926 138.572 18.746C138.236 18.554 137.864 18.458 137.456 18.458C137 18.458 136.58 18.578 136.196 18.818C135.824 19.046 135.53 19.376 135.314 19.808C135.098 20.228 134.99 20.72 134.99 21.284C134.99 21.836 135.098 22.328 135.314 22.76C135.542 23.18 135.842 23.516 136.214 23.768C136.586 24.008 137 24.128 137.456 24.128C137.744 24.128 138.014 24.08 138.266 23.984C138.53 23.888 138.764 23.756 138.968 23.588C139.172 23.42 139.322 23.228 139.418 23.012L141.776 23.732C141.56 24.2 141.242 24.62 140.822 24.992C140.414 25.364 139.928 25.658 139.364 25.874C138.812 26.078 138.188 26.18 137.492 26.18ZM142.612 23.21C142.612 22.598 142.78 22.064 143.116 21.608C143.464 21.14 143.944 20.78 144.556 20.528C145.168 20.276 145.87 20.15 146.662 20.15C147.058 20.15 147.46 20.18 147.868 20.24C148.276 20.3 148.63 20.396 148.93 20.528V20.024C148.93 19.424 148.75 18.962 148.39 18.638C148.042 18.314 147.52 18.152 146.824 18.152C146.308 18.152 145.816 18.242 145.348 18.422C144.88 18.602 144.388 18.866 143.872 19.214L143.098 17.63C143.722 17.222 144.358 16.916 145.006 16.712C145.666 16.508 146.356 16.406 147.076 16.406C148.42 16.406 149.464 16.742 150.208 17.414C150.964 18.086 151.342 19.046 151.342 20.294V23.3C151.342 23.552 151.384 23.732 151.468 23.84C151.564 23.948 151.714 24.014 151.918 24.038V26C151.702 26.036 151.504 26.066 151.324 26.09C151.156 26.114 151.012 26.126 150.892 26.126C150.412 26.126 150.046 26.018 149.794 25.802C149.554 25.586 149.404 25.322 149.344 25.01L149.29 24.524C148.882 25.052 148.372 25.46 147.76 25.748C147.148 26.036 146.524 26.18 145.888 26.18C145.264 26.18 144.7 26.054 144.196 25.802C143.704 25.538 143.314 25.184 143.026 24.74C142.75 24.284 142.612 23.774 142.612 23.21ZM148.48 23.696C148.612 23.552 148.72 23.408 148.804 23.264C148.888 23.12 148.93 22.988 148.93 22.868V21.914C148.642 21.794 148.33 21.704 147.994 21.644C147.658 21.572 147.34 21.536 147.04 21.536C146.416 21.536 145.9 21.674 145.492 21.95C145.096 22.214 144.898 22.568 144.898 23.012C144.898 23.252 144.964 23.48 145.096 23.696C145.228 23.912 145.42 24.086 145.672 24.218C145.924 24.35 146.224 24.416 146.572 24.416C146.932 24.416 147.286 24.35 147.634 24.218C147.982 24.074 148.264 23.9 148.48 23.696Z" fill="#F8FAFC"/>
</svg>
